<svg version="1.1" xmlns="http://www.w3.org/2000/svg" viewBox="0 0 785.0640278134495 539.7014007568359" width="1570.128055626899" height="1079.4028015136719">
  <!-- svg-source:excalidraw -->
  
  <defs>
    <style>
      @font-face {
        font-family: "Virgil";
        src: url("https://excalidraw.com/Virgil.woff2");
      }
      @font-face {
        font-family: "Cascadia";
        src: url("https://excalidraw.com/Cascadia.woff2");
      }
    </style>
  </defs>
  <rect x="0" y="0" width="785.0640278134495" height="539.7014007568359" fill="#ffffff"></rect><g stroke-linecap="round" transform="translate(10 10) rotate(0 106.44174194335938 120.15108489990234)"><path d="M-0.33 -0.55 C66.1 2.97, 131.79 0.34, 212.89 0.75 M-0.11 -0.24 C57.09 -0.09, 115.63 -1.01, 213.7 -0.59 M213.7 -1.26 C214.08 95.69, 215.34 191.98, 213.77 238.71 M212.44 -0.57 C213.49 92.13, 212.57 183.64, 212.25 239.54 M213.89 240.43 C170.88 238.38, 126.24 240.03, -0.92 238.56 M213.38 240.92 C158.44 241.43, 102.58 241.5, -0.29 239.83 M-1.42 239.04 C0.12 178.9, 2.94 115.22, -0.98 -1.59 M-0.82 240.75 C1.32 185.21, 1.56 130.13, -0.14 -0.21" stroke="#000000" stroke-width="1" fill="none"></path></g><g stroke-linecap="round" transform="translate(298.5784912109375 15.227249145507812) rotate(0 113.20236206054688 119.43186950683594)"><path d="M1.22 0.31 C50.34 0.11, 98.79 1.5, 225.44 0.49 M0.25 0.14 C56.87 -0.15, 114.02 0.11, 226.78 0.12 M225.95 0.33 C226.46 69.73, 227.38 141.43, 225.98 238.1 M225.59 -0.03 C226.34 78.59, 226.06 158.97, 226.72 239.65 M226.52 237.64 C169.43 239.94, 112.49 239.06, 1.34 239.2 M226.55 238.85 C155.26 239.82, 85.48 238.36, -0.68 238.4 M-0.44 239.19 C1.71 164.78, 1.03 90.04, 1.29 -1.5 M-0.3 238.1 C-1.12 157, -0.25 74.6, -0.07 -0.28" stroke="#000000" stroke-width="1" fill="none"></path></g><g transform="translate(36.385986328125 27.248260498046875) rotate(0 65.5 75)"><text x="0" y="18" font-family="Virgil, Segoe UI Emoji" font-size="20px" fill="#000000" text-anchor="start" style="white-space: pre;" direction="ltr">countries</text><text x="0" y="43" font-family="Virgil, Segoe UI Emoji" font-size="20px" fill="#000000" text-anchor="start" style="white-space: pre;" direction="ltr"></text><text x="0" y="68" font-family="Virgil, Segoe UI Emoji" font-size="20px" fill="#000000" text-anchor="start" style="white-space: pre;" direction="ltr">id=int</text><text x="0" y="93" font-family="Virgil, Segoe UI Emoji" font-size="20px" fill="#000000" text-anchor="start" style="white-space: pre;" direction="ltr">name=str</text><text x="0" y="118" font-family="Virgil, Segoe UI Emoji" font-size="20px" fill="#000000" text-anchor="start" style="white-space: pre;" direction="ltr">continent=str</text><text x="0" y="143" font-family="Virgil, Segoe UI Emoji" font-size="20px" fill="#000000" text-anchor="start" style="white-space: pre;" direction="ltr">visited=bool</text></g><g transform="translate(359.31756591796875 34.51234436035156) rotate(0 57.5 87.5)"><text x="0" y="18" font-family="Virgil, Segoe UI Emoji" font-size="20px" fill="#000000" text-anchor="start" style="white-space: pre;" direction="ltr">cities</text><text x="0" y="43" font-family="Virgil, Segoe UI Emoji" font-size="20px" fill="#000000" text-anchor="start" style="white-space: pre;" direction="ltr"></text><text x="0" y="68" font-family="Virgil, Segoe UI Emoji" font-size="20px" fill="#000000" text-anchor="start" style="white-space: pre;" direction="ltr">id =int</text><text x="0" y="93" font-family="Virgil, Segoe UI Emoji" font-size="20px" fill="#000000" text-anchor="start" style="white-space: pre;" direction="ltr">name=str</text><text x="0" y="118" font-family="Virgil, Segoe UI Emoji" font-size="20px" fill="#000000" text-anchor="start" style="white-space: pre;" direction="ltr">country=str</text><text x="0" y="143" font-family="Virgil, Segoe UI Emoji" font-size="20px" fill="#000000" text-anchor="start" style="white-space: pre;" direction="ltr">visited=bool</text><text x="0" y="168" font-family="Virgil, Segoe UI Emoji" font-size="20px" fill="#000000" text-anchor="start" style="white-space: pre;" direction="ltr"></text></g><g stroke-linecap="round" transform="translate(577.9014282226562 13.902633666992188) rotate(0 96.22467041015625 119.70149230957031)"><path d="M-1.38 -0.76 C43.01 0.62, 89.75 -2.06, 192.45 -0.01 M-0.29 0.28 C58.44 -0.4, 116.8 -0.46, 192.78 -0.72 M191.57 0.53 C192.27 88.68, 191.16 173.96, 193.86 238.12 M191.88 0.69 C194.08 72.44, 194.99 143.38, 192.83 239.18 M193.45 237.82 C129.25 239.07, 63.64 236.85, -0.47 238.34 M193.43 239.93 C120.1 240.94, 47.03 240.95, -0.08 239.37 M-0.36 238.93 C-0.21 177.26, 0.27 113.63, 1.49 -0.91 M-0.5 238.74 C-1.69 187.67, -1.56 137.25, -0.07 -0.45" stroke="#000000" stroke-width="1" fill="none"></path></g><g stroke-linecap="round"><g transform="translate(12.2569580078125 54.56391906738281) rotate(0 105.97329879341649 -1.3222633149474916)"><path d="M0.4 -0.38 C35.82 -0.58, 177.16 -1.88, 212.79 -2.27 M-0.85 -1.62 C34.36 -1.52, 175.87 -0.68, 211.68 -0.67" stroke="#000000" stroke-width="1" fill="none"></path></g></g><g stroke-linecap="round"><g transform="translate(299.01483154296875 59.726806640625) rotate(0 112.99545150178488 -2.5469580564647885)"><path d="M0.81 0.03 C38.36 -0.75, 188.65 -4.5, 226.21 -5.13 M-0.22 -1 C37.15 -1.56, 187.96 -2.99, 225.62 -3.74" stroke="#000000" stroke-width="1" fill="none"></path></g></g><g transform="translate(625.7926025390625 28.702346801757812) rotate(0 29.5 12.5)"><text x="0" y="18" font-family="Virgil, Segoe UI Emoji" font-size="20px" fill="#000000" text-anchor="start" style="white-space: pre;" direction="ltr">sights</text></g><g stroke-linecap="round"><g transform="translate(580.447998046875 53.555633544921875) rotate(0 97.26952000203539 -1.4077998237591203)"><path d="M0.91 -0.28 C33.4 -0.28, 162.61 -0.76, 194.62 -0.77 M-0.08 -1.47 C32.39 -1.76, 162.25 -2.43, 194.24 -2.54" stroke="#000000" stroke-width="1" fill="none"></path></g></g><g transform="translate(593.8851318359375 57.40289306640625) rotate(0 58 62.5)"><text x="0" y="18" font-family="Virgil, Segoe UI Emoji" font-size="20px" fill="#000000" text-anchor="start" style="white-space: pre;" direction="ltr"></text><text x="0" y="43" font-family="Virgil, Segoe UI Emoji" font-size="20px" fill="#000000" text-anchor="start" style="white-space: pre;" direction="ltr">id=int</text><text x="0" y="68" font-family="Virgil, Segoe UI Emoji" font-size="20px" fill="#000000" text-anchor="start" style="white-space: pre;" direction="ltr">name=str</text><text x="0" y="93" font-family="Virgil, Segoe UI Emoji" font-size="20px" fill="#000000" text-anchor="start" style="white-space: pre;" direction="ltr">city=str</text><text x="0" y="118" font-family="Virgil, Segoe UI Emoji" font-size="20px" fill="#000000" text-anchor="start" style="white-space: pre;" direction="ltr">visited=bool</text></g><g stroke-linecap="round" transform="translate(139.2218017578125 288.79811096191406) rotate(0 103.59768676757807 120.12153625488281)"><path d="M1.3 -0.94 C61.56 0.88, 118.54 0.59, 206.45 0.56 M0.71 -0.39 C47.4 -0.95, 92.98 -2.33, 206.5 0.38 M208.38 -0.45 C207.87 65.21, 208.17 131.55, 207.79 239.26 M207.92 0.14 C205.86 56.64, 205.37 114.74, 206.96 240.93 M208.14 241.94 C153.85 240.46, 102.31 240.35, -1.29 241.94 M208.06 240.53 C143.37 239.19, 78.83 238.29, 0.56 240.29 M1.32 241.45 C1.04 166.1, 1.91 92.55, -1.62 -0.58 M-0.3 240.53 C1.42 168.8, 0.51 95.95, 0.72 0.5" stroke="#000000" stroke-width="1" fill="none"></path></g><g transform="translate(172.21343994140625 317.84019470214844) rotate(0 24.5 12.5)"><text x="0" y="18" font-family="Virgil, Segoe UI Emoji" font-size="20px" fill="#000000" text-anchor="start" style="white-space: pre;" direction="ltr">blogs</text></g><g stroke-linecap="round"><g transform="translate(139.98098754882812 344.02818298339844) rotate(0 102.45252023674544 -2.1801888022571916)"><path d="M-0.98 0 C33.51 -0.88, 171.32 -3.57, 205.88 -4.36 M0.71 -1.05 C35.14 -1.86, 170.78 -2.65, 204.98 -3.12" stroke="#000000" stroke-width="1" fill="none"></path></g></g><g transform="translate(168.52239990234375 358.41722106933594) rotate(0 59 50)"><text x="0" y="18" font-family="Virgil, Segoe UI Emoji" font-size="20px" fill="#000000" text-anchor="start" style="white-space: pre;" direction="ltr">id=int</text><text x="0" y="43" font-family="Virgil, Segoe UI Emoji" font-size="20px" fill="#000000" text-anchor="start" style="white-space: pre;" direction="ltr">title=str</text><text x="0" y="68" font-family="Virgil, Segoe UI Emoji" font-size="20px" fill="#000000" text-anchor="start" style="white-space: pre;" direction="ltr">date=int</text><text x="0" y="93" font-family="Virgil, Segoe UI Emoji" font-size="20px" fill="#000000" text-anchor="start" style="white-space: pre;" direction="ltr">content=str</text></g><g stroke-linecap="round" transform="translate(407.9132080078125 293.38829040527344) rotate(0 102.36395263671875 118.15655517578125)"><path d="M1.06 1.03 C61.93 -0.94, 125.12 -1.6, 203.46 0.65 M-0.5 -0.64 C41.94 -1.03, 82.55 -0.17, 204.69 -0.79 M205.07 -0.85 C202.6 66.46, 204.44 128.71, 204.78 235.16 M204.82 0.41 C202.76 76.12, 202.69 151.41, 204.78 235.53 M203.45 236.35 C145.94 237.2, 88.98 236.48, 0.62 237.31 M205.42 236.76 C157.84 235.96, 110.02 236.03, -0.24 237.14 M-0.43 235.37 C-1.1 143.06, -0.87 50.79, 0.43 0.81 M-0.29 237.1 C1.88 157.53, 1.29 79.52, -0.36 0.4" stroke="#000000" stroke-width="1" fill="none"></path></g><g transform="translate(463.09564208984375 310.33042907714844) rotate(0 33 12.5)"><text x="0" y="18" font-family="Virgil, Segoe UI Emoji" font-size="20px" fill="#000000" text-anchor="start" style="white-space: pre;" direction="ltr">photos</text></g><g stroke-linecap="round"><g transform="translate(409.72039794921875 343.5530242919922) rotate(0 102.192119700592 -0.8124645078461583)"><path d="M1 1.15 C34.73 1.14, 168.55 -0.66, 202.19 -1.15 M0.06 0.71 C34.16 0.47, 170.7 -2.61, 204.33 -2.78" stroke="#000000" stroke-width="1" fill="none"></path></g></g><g transform="translate(431.626220703125 358.7106170654297) rotate(0 60 37.5)"><text x="0" y="18" font-family="Virgil, Segoe UI Emoji" font-size="20px" fill="#000000" text-anchor="start" style="white-space: pre;" direction="ltr">id=int</text><text x="0" y="43" font-family="Virgil, Segoe UI Emoji" font-size="20px" fill="#000000" text-anchor="start" style="white-space: pre;" direction="ltr">location=str</text><text x="0" y="68" font-family="Virgil, Segoe UI Emoji" font-size="20px" fill="#000000" text-anchor="start" style="white-space: pre;" direction="ltr">date=int</text></g><g stroke-linecap="round"><g transform="translate(224.38446044921875 134.64964294433594) rotate(0 37.0191209759563 -0.6981198756222682)"><path d="M-1.03 -0.21 C11.41 -0.06, 62.28 0.26, 75.06 0.2 M0.64 -1.37 C12.86 -1.47, 61.65 -1.8, 74.08 -1.43" stroke="#000000" stroke-width="1" fill="none"></path></g><g transform="translate(224.38446044921875 134.64964294433594) rotate(0 37.0191209759563 -0.6981198756222682)"><path d="M45.44 8.45 C57 6.3, 65.35 1.4, 75.78 -0.11 M45.85 8.66 C52.67 6.61, 59.53 3.81, 73.37 -1.25" stroke="#000000" stroke-width="1" fill="none"></path></g><g transform="translate(224.38446044921875 134.64964294433594) rotate(0 37.0191209759563 -0.6981198756222682)"><path d="M45.62 -12.07 C57 -7.27, 65.28 -5.22, 75.78 -0.11 M46.03 -11.86 C52.79 -8.59, 59.59 -6.08, 73.37 -1.25" stroke="#000000" stroke-width="1" fill="none"></path></g></g><g stroke-linecap="round"><g transform="translate(526.527099609375 139.98338317871094) rotate(0 29.8947654452175 0.8191135599836628)"><path d="M-0.97 0.91 C9.05 1.13, 50.58 0.39, 60.76 0.36 M0.72 0.35 C10.52 0.75, 49.46 1.08, 59.77 1.29" stroke="#000000" stroke-width="1" fill="none"></path></g><g transform="translate(526.527099609375 139.98338317871094) rotate(0 29.8947654452175 0.8191135599836628)"><path d="M32.96 11.02 C39.54 6.71, 50.05 5.24, 59.9 2.29 M32.24 11.77 C38.51 7.57, 46.7 6.31, 59.3 1.61" stroke="#000000" stroke-width="1" fill="none"></path></g><g transform="translate(526.527099609375 139.98338317871094) rotate(0 29.8947654452175 0.8191135599836628)"><path d="M33.25 -9.5 C39.56 -6.62, 49.97 -0.9, 59.9 2.29 M32.53 -8.75 C38.65 -7.35, 46.77 -3.02, 59.3 1.61" stroke="#000000" stroke-width="1" fill="none"></path></g></g></svg>